#!OML:ASF E:\VariousWalksJay\Project 1\Capture day 1\Session 1\Actor2.ASF
:FULLY-SPECIFIED
:DEGREES
847
root 10.7798 15.5971 34.5347 137.424 -81.1949 -134.643
lowerback 18.0285 0.993174 0.685983
upperback 8.45478 0.564539 -5.03553
thorax -0.956881 0.113088 -5.84467
lowerneck -3.78949 11.9492 5.29164
upperneck 0.685342 15.667 -0.560607
head 1.29925 7.82788 -0.610313
rclavicle -2.46493e-014 3.81667e-014
rhumerus -33.3174 12.4943 -60.1268
rradius 65.4508
rwrist -0.213253
rhand -1.63333 2.52008
rfingers 7.12502
rthumb 24.025 -25.9963
lclavicle -2.46493e-014 3.81667e-014
lhumerus 34.7999 -51.7097 26.3733
lradius 58.696
lwrist 21.3356
lhand -4.81768 -11.9742
lfingers 7.12502
lthumb 20.9686 16.9123
rfemur -32.7597 -38.581 5.84365
rtibia 85.3136
rfoot 5.63456 -2.41975
rtoes -8.50663
lfemur -39.6529 44.8788 -22.2495
ltibia 71.7487
lfoot -20.5434 18.2418
ltoes -16.2168
848
root 10.7829 15.7091 34.7325 147.593 -80.5333 -145.043
lowerback 17.6013 1.08904 0.82244
upperback 8.27715 0.736846 -4.91852
thorax -0.907589 0.20598 -5.8188
lowerneck -3.94009 11.9225 5.26287
upperneck 1.42396 15.6373 -1.12295
head 1.61359 7.81532 -0.734214
rclavicle 3.10104e-014 6.20208e-014
rhumerus -32.0981 15.0561 -59.0431
rradius 67.2468
rwrist -0.961779
rhand -1.81102 2.40778
rfingers 7.12502
rthumb 23.8546 -26.1309
lclavicle 3.10104e-014 6.20208e-014
lhumerus 33.0755 -52.4647 26.4195
lradius 57.8772
lwrist 21.7043
lhand -4.89831 -11.8688
lfingers 7.12502
lthumb 20.8911 17.0263
rfemur -32.5019 -38.4546 5.82304
rtibia 86.0643
rfoot 7.36152 -3.10277
rtoes -5.70824
lfemur -38.8802 45.1679 -23.247
ltibia 71.16
lfoot -18.6202 17.7884
ltoes -17.3171
849
root 10.7825 15.8251 34.9267 157.506 -79.7079 -155.218
lowerback 17.2146 1.05266 0.701599
upperback 8.12673 0.68974 -4.84403
thorax -0.877914 0.181131 -5.6514
lowerneck -4.15749 12.0393 4.69691
upperneck 2.16477 15.8259 -1.40179
head 1.87623 7.9073 -0.684201
rclavicle 0 1.59028e-014
rhumerus -30.4318 18.1259 -57.8624
rradius 69.0109
rwrist -1.67281
rhand -1.94768 2.2425
rfingers 7.12502
rthumb 23.7236 -26.3133
lclavicle 0 1.59028e-014
lhumerus 30.5185 -53.0341 26.9937
lradius 57.1684
lwrist 22.2233
lhand -5.04224 -11.6402
lfingers 7.12502
lthumb 20.7528 17.2701
rfemur -32.1491 -38.3074 5.46482
rtibia 86.6063
rfoot 9.03298 -3.9175
rtoes -4.27331
lfemur -38.1501 45.4772 -24.4464
ltibia 70.6623
lfoot -16.1931 17.2407
ltoes -19.2224
850
root 10.7848 15.936 35.1256 164.138 -78.4807 -161.921
lowerback 16.7119 1.17592 0.901919
upperback 7.88563 0.917105 -4.67541
thorax -0.849356 0.305209 -5.6133
lowerneck -4.04097 11.9713 5.17411
upperneck 2.81919 15.7585 -2.34974
head 2.20489 7.86366 -1.02214
rclavicle -9.54166e-015 4.6118e-014
rhumerus -29.208 20.6854 -56.6204
rradius 70.8374
rwrist -2.12394
rhand -2.14063 2.35609
rfingers 7.12502
rthumb 23.5385 -26.2236
lclavicle -9.54166e-015 4.6118e-014
lhumerus 28.812 -54.0695 27.1033
lradius 56.3676
lwrist 22.9653
lhand -5.10191 -11.2775
lfingers 7.12502
lthumb 20.6955 17.639
rfemur -32.0727 -38.1192 5.70824
rtibia 86.9449
rfoot 10.6147 -4.94499
rtoes -2.76406
lfemur -37.8514 45.7112 -25.3646
ltibia 70.3564
lfoot -13.2968 16.4631
ltoes -21.596
851
root 10.7855 16.0522 35.325 170.118 -77.0407 -167.955
lowerback 16.266 1.27452 1.21497
upperback 7.71342 1.11436 -4.61032
thorax -0.77172 0.416829 -5.74573
lowerneck -4.31984 11.911 5.00577
upperneck 3.54247 15.7063 -2.77505
head 2.52149 7.82474 -1.08423
rclavicle -8.74653e-015 -9.54166e-015
rhumerus -27.4705 23.3815 -55.194
rradius 72.4958
rwrist -2.63777
rhand -2.41084 2.29834
rfingers 7.12502
rthumb 23.2793 -26.3144
lclavicle -8.74653e-015 -9.54166e-015
lhumerus 27.1814 -55.0567 27.0051
lradius 55.7006
lwrist 23.8966
lhand -5.0539 -10.9987
lfingers 7.12502
lthumb 20.7416 17.9129
rfemur -32.0502 -37.7998 5.84674
rtibia 87.0623
rfoot 12.1236 -6.01502
rtoes -1.28562
lfemur -37.6488 45.9904 -26.311
ltibia 70.2019
lfoot -10.3365 15.2845
ltoes -23.2169
852
root 10.7861 16.1618 35.5166 174.386 -75.5312 -172.327
lowerback 15.9545 1.21143 1.38452
upperback 7.56652 1.07911 -4.41352
thorax -0.769806 0.404642 -5.61837
lowerneck -4.72752 12.0235 4.45991
upperneck 4.29733 15.9019 -2.98461
head 2.82884 7.90241 -1.00194
rclavicle 7.95139e-016 -1.59028e-015
rhumerus -25.1291 26.5523 -53.3835
rradius 74.1836
rwrist -3.19288
rhand -2.6645 2.11007
rfingers 7.12502
rthumb 23.0359 -26.5332
lclavicle 7.95139e-016 -1.59028e-015
lhumerus 24.6292 -55.8311 27.7032
lradius 54.9942
lwrist 24.791
lhand -5.117 -10.4044
lfingers 7.12502
lthumb 20.681 18.5137
rfemur -31.8603 -37.4717 6.03532
rtibia 86.9829
rfoot 13.0793 -7.15669
rtoes 0.791558
lfemur -37.4409 46.2253 -26.9473
ltibia 70.2417
lfoot -6.96618 13.9152
ltoes -24.9325
853
root 10.7871 16.2638 35.7104 177.974 -74.0524 -175.937
lowerback 15.6099 1.1476 1.60405
upperback 7.34459 1.05777 -4.17987
thorax -0.827649 0.401684 -5.48307
lowerneck -4.66879 12.0575 4.23175
upperneck 4.81141 16.0225 -3.66666
head 3.04689 7.93542 -1.15501
rclavicle 1.23246e-014 -4.69132e-014
rhumerus -22.7672 29.7007 -51.1678
rradius 75.9089
rwrist -3.81095
rhand -2.72444 2.11193
rfingers 7.12502
rthumb 22.9784 -26.5385
lclavicle 1.23246e-014 -4.69132e-014
lhumerus 22.0341 -56.7853 28.735
lradius 54.1576
lwrist 25.5156
lhand -5.17666 -10.1344
lfingers 7.12502
lthumb 20.6237 18.79
rfemur -31.7088 -37.2696 6.18835
rtibia 86.7417
rfoot 14.189 -8.20297
rtoes 3.10722
lfemur -37.4826 46.3201 -27.5643
ltibia 70.5062
lfoot -3.52982 12.2641
ltoes -25.7077
854
root 10.7897 16.3641 35.8992 180.507 -72.5031 -178.577
lowerback 15.4444 1.41167 1.93829
upperback 7.18025 1.47426 -3.92323
thorax -0.866955 0.617793 -5.46257
lowerneck -4.78822 11.8068 4.34686
upperneck 5.41688 15.7349 -4.25766
head 3.33814 7.7674 -1.34534
rclavicle -1.59028e-014 5.88403e-014
rhumerus -20.9222 31.9382 -48.921
rradius 77.669
rwrist -4.39151
rhand -2.6117 2.12665
rfingers 7.12502
rthumb 23.0866 -26.5103
lclavicle -1.59028e-014 5.88403e-014
lhumerus 21.0649 -58.3223 28.3626
lradius 53.7301
lwrist 26.3146
lhand -4.61974 -9.75592
lfingers 7.12502
lthumb 21.1587 19.1095
rfemur -31.3605 -36.9503 6.37955
rtibia 86.2923
rfoot 14.8418 -9.16722
rtoes 5.18153
lfemur -37.3841 46.3413 -27.7103
ltibia 70.9658
lfoot 0.0185161 9.63933
ltoes -25.8274
855
root 10.7934 16.4449 36.1178 183.037 -71.3493 -181.022
lowerback 15.0224 2.47118 2.7907
upperback 7.01118 3.00514 -3.89719
thorax -0.59963 1.41805 -6.13747
lowerneck -4.68915 10.5967 6.69029
upperneck 6.03432 14.0524 -5.36471
head 3.77446 6.94333 -2.18053
rclavicle 1.31198e-014 2.78299e-014
rhumerus -21.86 31.8318 -47.4445
rradius 79.6376
rwrist -4.73055
rhand -2.72917 2.03447
rfingers 7.12502
rthumb 22.9739 -26.6165
lclavicle 1.31198e-014 2.78299e-014
lhumerus 26.3117 -61.458 23.1194
lradius 53.4037
lwrist 26.7437
lhand -4.87107 -9.32985
lfingers 7.12502
lthumb 20.9173 19.5624
rfemur -31.2499 -37.1757 6.38775
rtibia 85.7766
rfoot 15.3884 -9.88859
rtoes 5.96202
lfemur -37.8894 45.7651 -28.3236
ltibia 71.6702
lfoot 3.80774 6.63522
ltoes -24.9678
856
root 10.8015 16.5274 36.2899 184.944 -69.7871 -183.009
lowerback 15.1073 1.56386 2.76196
upperback 6.93015 1.82466 -3.5361
thorax -0.896912 0.813543 -5.56713
lowerneck -5.34843 11.4457 4.47084
upperneck 6.39558 15.3358 -5.17433
head 3.87558 7.51631 -1.61722
rclavicle -1.61016e-014 -4.25399e-014
rhumerus -15.9159 36.2512 -43.7028
rradius 81.0092
rwrist -5.60541
rhand -2.71825 1.93217
rfingers 7.12502
rthumb 22.9843 -26.7175
lclavicle -1.61016e-014 -4.25399e-014
lhumerus 18.6573 -61.0145 27.8931
lradius 52.9926
lwrist 26.224
lhand -3.42799 -9.54494
lfingers 7.12502
lthumb 22.3032 19.1879
rfemur -30.8974 -36.7983 6.56438
rtibia 85.0763
rfoot 15.4422 -10.7578
rtoes 7.15129
lfemur -38.119 46.0168 -28.3799
ltibia 72.4552
lfoot 7.92236 3.16815
ltoes -21.9164
857
root 10.8073 16.6006 36.4761 186.378 -68.3337 -184.362
lowerback 14.9318 1.60194 3.11962
upperback 6.79938 1.94561 -3.2387
thorax -0.925554 0.881118 -5.46847
lowerneck -5.50429 11.3296 4.40351
upperneck 6.68221 15.2302 -5.57662
head 4.03746 7.43872 -1.72678
rclavicle -3.12092e-014 2.54444e-014
rhumerus -12.7586 38.5001 -40.4912
rradius 82.7128
rwrist -6.34309
rhand -2.78254 1.65219
rfingers 7.12502
rthumb 22.9226 -27.0052
lclavicle -3.12092e-014 2.54444e-014
lhumerus 16.729 -62.1181 28.2507
lradius 52.882
lwrist 25.9474
lhand -2.19915 -9.24078
lfingers 7.12502
lthumb 23.4824 19.3461
rfemur -30.686 -36.6211 6.88671
rtibia 84.2631
rfoot 15.2424 -11.7298
rtoes 8.6531
lfemur -38.7828 45.9982 -28.4777
ltibia 73.3539
lfoot 12.394 0.191516
ltoes -16.7359
858
root 10.8138 16.661 36.65 188.008 -66.9222 -185.929
lowerback 14.7273 1.65125 3.21837
upperback 6.72627 2.04023 -2.93458
thorax -0.892844 0.929968 -5.20847
lowerneck -5.78719 11.1809 4.01156
upperneck 6.89979 15.0883 -5.78804
head 4.14607 7.33993 -1.72129
rclavicle -3.04141e-014 2.60408e-014
rhumerus -9.33029 39.8101 -37.4734
rradius 83.4896
rwrist -6.43645
rhand -2.77393 1.94582
rfingers 7.12502
rthumb 22.9309 -26.7105
lclavicle -3.04141e-014 2.60408e-014
lhumerus 14.8907 -63.1755 28.5997
lradius 52.8374
lwrist 25.6048
lhand -1.06298 -9.09508
lfingers 7.12502
lthumb 24.5718 19.348
rfemur -30.4811 -36.6523 6.99547
rtibia 83.3265
rfoot 15.1315 -12.9344
rtoes 11.4936
lfemur -39.4429 45.952 -28.5883
ltibia 74.2025
lfoot 17.192 -1.2485
ltoes -9.23492
859
root 10.8221 16.7121 36.8374 189.153 -65.5015 -187.001
lowerback 14.6719 1.70506 3.60186
upperback 6.65734 2.17554 -2.67257
thorax -0.914452 1.00308 -5.16776
lowerneck -5.63999 10.9974 4.27821
upperneck 6.96482 14.9106 -6.7514
head 3.82511 7.2083 -1.88426
rclavicle 1.12562e-014 -3.18552e-014
rhumerus -5.78108 41.3688 -33.9482
rradius 84.8555
rwrist -6.9422
rhand -2.75117 1.92274
rfingers 7.12502
rthumb 22.9528 -26.7309
lclavicle 1.12562e-014 -3.18552e-014
lhumerus 13.2948 -64.3193 28.6274
lradius 53.054
lwrist 25.3033
lhand 0.142671 -8.99492
lfingers 7.12502
lthumb 25.727 19.2861
rfemur -30.3105 -36.6087 7.26656
rtibia 82.2741
rfoot 14.3042 -14.7863
rtoes 13.643
lfemur -40.2477 45.9409 -28.7002
ltibia 75.0869
lfoot 21.8478 -1.2901
ltoes -2.85227
860
root 10.8286 16.7581 37.0231 190.481 -64.1222 -188.252
lowerback 14.6231 1.68404 3.97589
upperback 6.58364 2.20816 -2.48239
thorax -0.953059 1.02458 -5.18348
lowerneck -5.70173 10.8119 4.10146
upperneck 6.87272 14.7026 -7.0912
head 3.80952 7.08652 -1.97172
rclavicle 3.62782e-014 9.54166e-015
rhumerus -1.98598 42.653 -30.3617
rradius 85.9275
rwrist -7.20708
rhand -2.9083 1.97734
rfingers 7.12502
rthumb 22.802 -26.6949
lclavicle 3.62782e-014 9.54166e-015
lhumerus 11.5335 -65.4229 28.7383
lradius 53.3221
lwrist 25.2295
lhand 1.39183 -8.60027
lfingers 7.12502
lthumb 26.9228 19.502
rfemur -30.1464 -36.6319 7.39024
rtibia 81.0905
rfoot 12.7916 -17.202
rtoes 16.5281
lfemur -41.0864 45.9397 -28.9494
ltibia 75.9976
lfoot 25.9563 -0.234034
ltoes 1.89881
861
root 10.8379 16.792 37.2126 191.963 -62.7086 -189.525
lowerback 14.3764 1.6765 4.14709
upperback 6.57815 2.22216 -2.28873
thorax -0.826675 1.03724 -5.06787
lowerneck -5.71325 10.6143 4.05401
upperneck 6.5209 14.466 -7.58059
head 3.72558 6.95564 -2.13312
rclavicle 4.1546e-014 4.77083e-015
rhumerus 2.25402 43.5943 -26.4945
rradius 86.8281
rwrist -7.20022
rhand -3.15164 1.99926
rfingers 7.12502
rthumb 22.5684 -26.7016
lclavicle 4.1546e-014 4.77083e-015
lhumerus 9.59733 -66.3591 28.8378
lradius 53.8092
lwrist 25.2568
lhand 2.8923 -9.01446
lfingers 7.12502
lthumb 28.3576 18.8579
rfemur -30.2427 -36.676 7.54359
rtibia 79.8371
rfoot 11.3396 -19.5816
rtoes 19.412
lfemur -42.1899 45.953 -29.498
ltibia 76.9663
lfoot 27.736 3.19825
ltoes 0.402534
